<svg id="Calque_1" data-name="Calque 1" xmlns="http://www.w3.org/2000/svg" viewBox="0 0 32 32"><defs><style>.cls-1{fill:#fff9f4;}</style></defs><title>instagram</title><path class="cls-1" d="M27.54.09H4.94a4.69,4.69,0,0,0-4.7,4.7v22.6a4.69,4.69,0,0,0,4.7,4.7h22.6a4.69,4.69,0,0,0,4.7-4.7V4.79A4.69,4.69,0,0,0,27.54.09Zm-11.2,24.4a8.4,8.4,0,1,1,8.4-8.4A8.39,8.39,0,0,1,16.34,24.49Zm9.3-15a2.8,2.8,0,0,1-2.8-2.8,2.8,2.8,0,1,1,5.6,0A2.8,2.8,0,0,1,25.64,9.49Z" transform="translate(-0.24 -0.09)"/><path class="cls-1" d="M25.64,5.69a.9.9,0,1,0,.9.9.84.84,0,0,0-.9-.9Z" transform="translate(-0.24 -0.09)"/><path class="cls-1" d="M16.34,9.49a6.6,6.6,0,1,0,6.6,6.6h0A6.66,6.66,0,0,0,16.34,9.49Z" transform="translate(-0.24 -0.09)"/></svg>