<svg id="Calque_1" data-name="Calque 1" xmlns="http://www.w3.org/2000/svg" viewBox="0 0 20 20"><defs><style>.cls-1{fill:#fff9f5;}</style></defs><title>menuBurger2</title><path class="cls-1" d="M21.34,10.89a2,2,0,0,1-2,2h-16a2,2,0,0,1,0-4h16A2,2,0,0,1,21.34,10.89Z" transform="translate(-1.34 -0.89)"/><path class="cls-1" d="M21.34,2.89a2,2,0,0,1-2,2h-16a2,2,0,0,1,0-4h16A2,2,0,0,1,21.34,2.89Z" transform="translate(-1.34 -0.89)"/><path class="cls-1" d="M21.34,18.89a2,2,0,0,1-2,2h-16a2,2,0,0,1,0-4h16A2,2,0,0,1,21.34,18.89Z" transform="translate(-1.34 -0.89)"/></svg>